# xmcd
#
# Track frame offsets:
#	150
#	23146
#	45507
#	68439
#	89917
#	108337
#	131147
#	146865
#	167237
#	195092
#	218847
#	243594
#	260981
#	286819
#
# Disc length: 4141 seconds
#
# Revision: 1
# Processed by: cddbd v1.5.2PL0 Copyright (c) Steve Scherf et al.
# Submitted via: EZCDAudioConverter 8.0.2.1
#
DISCID=d3102b0e
DTITLE=Toàn Nguyễn - Trịnh Công Sơn 2
DYEAR=2009
DGENRE=Traditional Country
TTITLE0=Lặng lẽ nơi này
TTITLE1=Tôi ru em ngủ
TTITLE2=Như cánh vạc bay
TTITLE3=Thương một người
TTITLE4=Nắng thủy tinh
TTITLE5=Cỏ xót xa đưa
TTITLE6=Đêm thấy ta là thác đổ
TTITLE7=Rừng xưa đã khép
TTITLE8=Ướt mi
TTITLE9=Nghe tiếng muôn trùng
TTITLE10=Du mục
TTITLE11=Nhìn những mùa thu đi
TTITLE12=Dấu chân dịu dàng
TTITLE13=Xin cho tôi
EXTD=
EXTT0=
EXTT1=
EXTT2=
EXTT3=
EXTT4=
EXTT5=
EXTT6=
EXTT7=
EXTT8=
EXTT9=
EXTT10=
EXTT11=
EXTT12=
EXTT13=
PLAYORDER=
